<?xml version="1.0" encoding="UTF-8"?>
<svg id="Layer_1" xmlns="http://www.w3.org/2000/svg" version="1.1" viewBox="0 0 256 256">
  <!-- Generator: Adobe Illustrator 29.8.1, SVG Export Plug-In . SVG Version: 2.1.1 Build 2)  -->
  <defs>
    <style>
      .st0 {
        fill: #fff;
      }

      .st1 {
        stroke: #000;
        stroke-miterlimit: 10;
      }
    </style>
  </defs>
  <circle class="st1" cx="128" cy="128" r="123.3"/>
  <path class="st0" d="M119.6,2.3c99.9-5.5,167.7,100.4,117.9,188-46.8,82.3-165.1,85.3-216.1,5.5C-29.8,115.6,24.6,7.5,119.6,2.3ZM120.2,9.8C31.1,14.7-20.3,115.7,27.5,191.5c47.9,75.7,160.4,72.7,203.8-5.5C277.2,103.6,213.9,4.8,120.2,9.8Z"/>
  <path class="st0" d="M82,181.7v-101c0-1.1-.8-3.7-1.2-4.8-2.5-5.8-8.4-9.5-14.7-9.8-.8-.5,0-1.2.5-1.2,6.3,0,12.7-.2,19,0s10.3,0,14.7,1.8c6.3,2.6,12,9.7,12.6,16.6s0,20.4,0,29.9.5,12.7.3,19,.3,5.2-.6,7.2l-30.7,42.1.2.2h-.1Z"/>
  <path class="st0" d="M136.7,166.8l-17-33.5,21.9-30.4,43.1,81c2.8,4,6.1,5.8,10.6,6.9,4.5,1.1,5.4.6,4.5,1.5-2.1.8-4.3,0-6.3,0-9.5-.2-28.7,1.5-36.8-.8s-13.8-14.9-19.3-23.8c-3.7-.3-7.4-.2-11.1-.2s-10.6-.2-16,0c-1.4,0-1.8,0-3.5-.2l.5-.8h29.5v.3Z"/>
  <path class="st0" d="M181.6,65.1c.8,0,1.2.9.5,1.5-4.9.3-9.5,1.8-13.2,5.1l-23,25.3-.3-16.4c-.8-8-8-14.3-16-14.1v-1.4h52Z"/>
  <path class="st0" d="M223.8,87.2c.6.3,4,10.6,4.5,12,7.1,23.5,5.4,49-5.1,71.4-.5,1.1-2.6,5.7-3.2,6.3s-2,.3-2.9.3c4.3-7.5,7.8-15.7,10-24.1,5.7-21.6,3.7-45-5.7-65.4-.3-.9,2.1-.6,2.3-.5h.2-.1Z"/>
  <path class="st0" d="M34.1,87c-13.2,28.7-11.5,62.6,4.1,89.9h-2.6c-5.2-9.8-9.2-20.6-11.2-31.5-3.4-20-.8-39.9,7.1-58.3h2.6v-.2h0Z"/>
  <path class="st0" d="M73.4,46.7c-.3.6-1.7.3-2.3,0-1.2-1.1-2.5-3.8-3.7-4.9.5,6.1.5,6.8-5.4,4.5-.3.3,3.5,4.6,3.7,5.4.3,1.1-.8,2-1.7,1.7s-6.1-7.5-6.6-8.3-.8-2,.3-2.6,5.5,1.8,7.4,2.1c.6-.6-2.5-9.5,1.8-8.1,4.3,1.4,6.1,7.7,6.3,8.3s.6,1.7.3,2.1l-.2-.2h0Z"/>
  <path class="st0" d="M80.7,27.8c10.9-1.8,10.3,15.3-.6,13-6.6-1.4-6.4-11.8.6-13ZM80.5,30.6c-4.6,1.1-2.9,9.4,2.8,7.5,5.7-1.8,2.5-8.7-2.8-7.5Z"/>
  <path class="st0" d="M138.7,22.6l5.4.6c0-1.1,0-3.5.6-4.3s1.8-.8,2.3-.2-.6,9.4-.9,10.6-.9,2.6-2.5,1.7-.2-4,0-5.1l-5.4-.6c0,1.4,0,5.2-1.8,5.1s-1.2-1.8-1.2-2.9,1.1-8.9,1.4-9.5c.6-1.1,2.3-.8,2.6.3s-.5,3.2-.6,4.1l.2.2h-.1Z"/>
  <path class="st0" d="M171.7,29l-1.1,2.3c1.1.5,4.8,1.7,5.1,2.6,1.2,4.1-5.1-.5-5.8-.2l-1.2,2.3c.2.3,4.9,1.8,5.4,2.6s.6,2-.2,2.1-6.3-2.3-7.2-2.9-1.1-.5-1.1-1.2,3.1-7.8,3.8-9.1.8-1.8,2.3-1.4c1.5.5,6.9,3.1,7.1,3.8,1.1,3.8-6.6-1.2-7.1-.9v-.2.2Z"/>
  <path class="st0" d="M41.1,69.1c1.4.9,8.7-2.1,7.7,1.5s-5.7,1.1-7.1,1.2c-1.1,2.6,2.6,3.2,2.9,4.5.5,1.8-1.2,2-2.8,1.4s-7.1-4.3-7.8-5.1-1.4-1.5-.5-2.3c1.7-1.2,3.7,1.5,5.2,2,.3-.3-1.7-6.6-1.4-8s.9-1.1,1.8-.8c1.2.5.9,4.5,1.7,5.7l.2-.2h0Z"/>
  <path class="st0" d="M59.5,55.9c.5.5.6,1.5,0,2-1.4,1.1-3.2-.8-3.8-.3-.3,1.5-3.5,3.1-3.4,4.5s2.5,3.1-.6,3.7l-1.1-.8c-.6-2.3-4.9-9.5-4.6-11.4s1.2-1.7,2.1-1.5c2,1.1,10.3,2.8,11.4,3.8ZM50.9,59.2l2.3-2.6-4-1.5,1.7,4v.2h0Z"/>
  <path class="st0" d="M114.9,30.7c-1.7,1.1-2.6-1.5-3.2-2-.9-.8-4.5.8-5.8.8l-.9,3.1c-1.2.8-2.3,0-2.1-1.5.3-2.3,1.5-7.7,2.3-10s2.3-2.8,4.1-.5,5.8,8.3,6,8.9-.3,1.1-.3,1.1v.2h0ZM107.8,22.6c-.9,0-.6,0-.6.5-.3,1.2-.3,2.5-.6,3.5l3.4-.3-2-3.7h-.2Z"/>
  <path class="st0" d="M216,65.4c1.4-.3,2.8,0,3.8,1.1s3.2,5.4,1.2,6.4-1.7-6-4.3-4.8.2,3.2.3,4.5c.3,2.1,0,4.1-2.3,4.8-4.3,1.1-6.8-4.1-6.1-7.8,3.7-2.6,1.5,4.3,4.3,5.2s.6-3.7.5-4.9c-.3-1.8.5-4,2.6-4.5Z"/>
  <path class="st0" d="M210.3,59.9c-.8-.8-.5-3.5-2.6-4.5-4.6-1.8-8,4.6-4,7.1s3.5.6,2.6,2.6-5.1-.9-6-2.1c-4.5-6.1,3.4-13.5,9.2-9.2s3.5,4,2.9,5.8-1.7,1.1-2.3.5l.2-.2h0Z"/>
  <path class="st0" d="M160.6,219.5c.3.3,2.5,7.8,2.6,8.7.3,1.5-.9,2-2.3,1.5s-6.1-4.9-6.4-4.6c0,1.5,2.5,6,1.1,6.8s-2.1-1.7-2.6-2.8-1.7-5.1-1.8-6.3c-.6-5.4,8.1,3.5,8.7,2.9-.2-1.4-2.6-6.1-.8-6.8s1.2,0,1.4.5h.2,0Z"/>
  <path class="st0" d="M109.5,229.6c.5,0,.3-.5.5-.8.3-1.2.6-5.4,1.8-5.7l1.4.3c.3.5-1.2,8.1-1.5,9.1-1.5,5.5-5.2-4.5-6-6.1-.9,0-.6,0-.6.5-.3,1.2-.5,5.2-1.5,5.5s-1.7,0-1.7-1.4,1.1-6.6,1.7-8.1.5-1.5,1.7-1.2c1.8.3,3.4,6.1,4.3,7.7v.3h-.1Z"/>
  <path class="st0" d="M127.2,228.8c1.7-.9,2.9-3.2,4.5-4.1s.9-.8,1.5-.2c2,1.5-2.6,3.4-2.9,4.9,0,.6,6.6,6.6,2.1,6s-2.8-3.7-4.1-4.5c-2.3,1.2,0,5.7-3.5,4.3-.5-.8-.6-9.4-.2-10.4s.6-.6.9-.6c1.7,0,1.5,3.4,1.5,4.6,0,0,.2,0,.2,0Z"/>
  <path class="st0" d="M140.8,232.4c-.5.8,0,3.4-2.1,2.5-.2-.2-.5-.5-.5-.8,0-.5,2.5-9.8,2.9-10.3,1.1-1.4,2.3-.3,3.1.6s4.3,6.3,4.6,7.2.2,2.5-1.2,2-.9-1.4-1.4-1.7c-.8-.5-4.9,0-5.2.5h-.2ZM144.5,229.6l-2-3.4-.6,3.7,2.8-.3h-.2Z"/>
  <path class="st0" d="M189.2,215.3c.3.5,0,1.7-.5,2-1.2.5-2.3-1.4-2.9-1.2l-3.7,2.1-.3,3.1-1.5.5c-.6-.2-.6-1.7-.8-2.3-.6-2.8-.6-5.8-1.1-8.6l1.2-1.2h1.1c.3,0,8.1,5.2,8.4,5.7h.1ZM183.8,214.3l-3.1-1.7c.3.8,0,3.2.9,3.4l2-.9v-.8h.2Z"/>
  <path class="st0" d="M193.9,203.1c-.3.3-4.8,1.1-3.5,2.8s6-3.4,8,.6-4.8,7.7-6.4,5.7,3.5-1.7,4.3-3.2c1.4-3.1-2.9-.6-3.8-.5-4.6,1.1-6-3.7-2.3-6.3s5.5-.6,3.8.9h-.1Z"/>
  <path class="st0" d="M69.8,215.6c.5-2-2-3.1-2.6-4.8-.9-3.1,1.5-4.6,4.3-4s4.5,3.4,3.1,4.6-3.1-4.5-5.1-2c-.6,1.2,3.4,3.4,2.8,6.1s-2.8,2.9-4.9,2.1-4.8-4-3.4-5.2c1.4-1.2,2.9,4.5,5.5,3.1h.3,0Z"/>
  <path class="st0" d="M168,219.6c1.4.3,2.8-.3,4.1-.3,3.4.2,4.5,4,1.8,6s-6.8,2.3-6.4,0,4.5,0,5.4-2.1-4-.9-5.5-1.2c-2.6-.6-2.9-4-.8-5.7s6.3-2.3,5.4.6c-.5.6-4,0-4.6,1.5l.3,1.1.3.2h0Z"/>
  <path class="st0" d="M129.6,17.2s.3,1.1.3,1.2c0,2-3.7.5-4,1.7s.3,1.8.3,2.6c0,1.7.8,7.5-1.5,7.4-.3,0-.6-.2-.9-.5-.8-.9-.6-8.1-.6-9.7-.3-.3-4.9.8-4-1.8s.9-.9,1.2-.9c1.4,0,8.9-.3,9.4,0,0,0-.2,0-.2,0Z"/>
  <path class="st0" d="M183.9,35.5c-.3-.9.2-2.6,1.4-2.3s7.1,4.6,7.4,4.9c.5.6.6,1.5,0,2-1.5,1.1-3.1-1.7-4.1-1.1s-3.5,6-4.8,7.2-.6.6-1.2.5c-4-.3,3.5-8.1,3.5-9.4l-2.3-2,.2.2h0Z"/>
  <path class="st0" d="M155.1,21c.6-.6,2-.3,2.3.5,0,3.2-1.7,6.3-2.3,9.4.3,1.1,6,.9,5.8,3.1,0,.5-.5,1.1-.9,1.2s-6.4-1.7-7.1-2c-1.2-.6-.9-1.2-.8-2.5s2.8-9.4,3.1-9.7h-.2,0Z"/>
  <path class="st0" d="M79.3,212c.5,0,6.9,2.9,7.2,3.5.5.8.5,1.8-.6,1.8s-1.8-1.2-2.9-.9c-.9.5-2.6,6.1-3.5,7.1s-.5.5-1.1.3c-.8,0-1.2-.6-1.2-1.5.2-1.5,3.4-5.7,3.4-6.9s-2.1-1.1-2.3-2.1.3-1.2.9-1.4l.2.2h0Z"/>
  <path class="st0" d="M198.4,43.7c1.5-.5,2.6.6,1.7,2.1s-5.5,6.8-6.4,7.5-1.4,1.1-2.5.3v-1.8c1.2-1.1,6-7.8,7.1-8.1h.2-.1Z"/>
  <path class="st0" d="M62.4,202.7l-1.2-.8.3-1.4c1.7-.2,4.9.8,3.8,3.1-1.7,1.2-4.1,5.8-5.7,6.8s-2.1.3-1.8-1.2,5.2-5.8,4.8-6.6l-.2.2h0Z"/>
  <path class="st0" d="M98.9,220.1c.5.6-1.8,8.4-2.5,9.5s-.8,1.1-1.7.9c-.5-.3-.8-.8-.8-1.4s2.1-7.7,2.6-8.6.5-.8.8-.9l1.4.3.2.2Z"/>
</svg>